<?xml version="1.0" standalone="no"?>
<!DOCTYPE svg PUBLIC "-//W3C//DTD SVG 20010904//EN"
 "http://www.w3.org/TR/2001/REC-SVG-20010904/DTD/svg10.dtd">
<svg version="1.0" xmlns="http://www.w3.org/2000/svg"
 width="1236.000000pt" height="988.000000pt" viewBox="0 0 1236.000000 988.000000"
 preserveAspectRatio="xMidYMid meet">
<metadata>
Created by potrace 1.16, written by Peter Selinger 2001-2019
</metadata>
<g transform="translate(0.000000,988.000000) scale(0.100000,-0.100000)"
fill="#000000" stroke="none">
<path d="M4270 7960 c-73 -9 -196 -39 -284 -70 -89 -30 -141 -64 -160 -105
-16 -34 -16 -39 0 -87 14 -44 15 -60 4 -123 -10 -56 -10 -80 -1 -108 13 -37
62 -87 86 -87 24 0 45 -31 45 -66 0 -24 8 -43 25 -59 35 -36 61 -32 93 16 47
72 102 128 132 134 15 3 55 -1 88 -9 79 -21 76 -22 123 21 46 42 58 39 96 -16
12 -18 36 -42 54 -54 21 -14 36 -35 42 -57 5 -19 16 -43 24 -52 14 -15 13 -21
-6 -62 -12 -24 -55 -80 -95 -123 l-72 -79 -12 -135 c-7 -76 -9 -185 -5 -251
l6 -117 86 -3 86 -3 3 -126 3 -127 53 29 c85 46 134 60 246 69 124 9 156 22
175 68 14 32 35 36 35 6 0 -18 -7 -19 81 11 41 14 109 30 153 36 43 5 101 19
130 29 28 11 59 20 69 20 36 0 101 -43 181 -120 93 -90 93 -95 10 -141 -36
-21 -82 -33 -179 -48 -166 -27 -274 -48 -352 -68 -52 -13 -63 -20 -63 -37 0
-28 52 -770 54 -773 4 -5 1176 -16 1176 -12 0 3 -18 216 -40 474 -31 368 -43
473 -55 485 -10 9 -65 23 -143 35 l-127 20 55 21 c45 17 56 26 58 47 6 45 -18
105 -58 152 -27 31 -40 56 -40 75 0 34 -6 38 -126 81 -71 26 -97 41 -134 80
-26 27 -59 50 -76 54 -75 16 -106 28 -162 65 -33 22 -66 40 -73 40 -8 0 -54
29 -104 65 -135 97 -199 128 -256 126 -29 -1 -69 7 -101 20 -39 15 -73 20
-129 19 -94 -1 -125 10 -142 52 -8 19 -31 46 -51 62 l-37 28 6 81 c5 62 13 91
31 119 29 46 30 92 4 176 -11 35 -20 79 -20 97 0 45 -31 80 -103 117 -34 16
-78 44 -99 61 -43 34 -96 41 -208 27z"/>
<path d="M4070 7030 c-14 -11 -49 -29 -78 -40 -65 -24 -142 -74 -200 -126
l-42 -39 -36 -245 c-19 -135 -39 -263 -44 -285 -5 -22 -14 -101 -20 -175 -7
-85 -20 -168 -36 -222 -27 -94 -27 -129 3 -241 15 -56 15 -59 -4 -85 -58 -79
-212 -122 -436 -122 -80 0 -106 -8 -143 -41 -11 -11 -92 -40 -180 -65 -191
-55 -569 -169 -604 -182 -57 -22 -85 -86 -124 -284 -14 -68 -48 -206 -75 -308
-61 -222 -101 -405 -101 -463 0 -23 -11 -87 -24 -142 -13 -55 -26 -147 -30
-205 -5 -75 -12 -115 -26 -143 -12 -22 -20 -57 -20 -86 l0 -49 93 -22 c115
-28 268 -38 302 -20 29 16 48 58 44 102 -2 20 7 52 23 83 38 73 101 266 149
450 31 122 43 188 48 276 5 94 10 121 24 137 15 16 18 34 17 84 -3 85 -4 83
28 104 24 16 52 19 257 20 127 0 283 7 348 14 65 7 121 10 124 6 3 -3 -4 -32
-16 -63 -20 -52 -86 -235 -86 -240 0 -1 -44 -6 -97 -12 -53 -6 -134 -23 -180
-37 -77 -24 -88 -31 -154 -97 -103 -105 -190 -227 -250 -352 -72 -148 -95
-246 -99 -410 l-3 -130 -81 -47 c-114 -65 -140 -89 -186 -166 -3 -4 -242 17
-259 24 -9 3 -28 28 -43 55 -14 27 -29 49 -33 49 -4 0 -19 -18 -34 -40 -42
-63 -197 -241 -260 -296 -62 -56 -80 -66 -144 -83 -50 -14 -117 -74 -128 -115
-14 -58 57 -110 176 -129 92 -14 141 -3 310 67 86 35 166 61 221 71 68 11 253
67 267 79 2 3 -13 130 -24 195 l-5 33 31 -22 c46 -33 113 -50 195 -50 l73 0 7
-37 c7 -37 76 -226 80 -221 1 2 -1 30 -6 63 -4 33 -8 93 -8 132 l-1 73 93 46
c143 72 394 214 410 232 8 9 29 43 46 74 l32 57 -74 -6 -73 -6 -45 48 c-38 41
-45 54 -49 102 l-5 54 -108 -71 c-60 -40 -111 -69 -114 -66 -12 12 111 177
184 247 73 69 183 152 192 144 2 -2 -11 -25 -28 -52 -44 -67 -55 -109 -42
-160 25 -91 85 -128 199 -121 95 5 162 39 182 94 8 22 48 79 89 127 96 112
153 188 193 259 18 32 36 58 41 58 4 0 7 -489 7 -1086 0 -597 4 -1084 8 -1082
5 2 299 200 655 442 l647 439 0 707 0 708 -32 6 c-18 3 -294 40 -613 82 -319
42 -584 80 -589 85 -5 4 9 11 30 14 66 12 253 115 319 176 75 69 102 86 273
165 l136 64 27 -26 c22 -21 40 -27 91 -31 101 -8 200 23 343 107 28 16 85 37
128 47 l78 18 -5 110 c-2 61 -9 162 -15 225 -6 63 -22 274 -36 469 -13 194
-26 355 -27 357 -2 2 -46 -8 -98 -21 -109 -27 -286 -55 -354 -55 l-46 0 0 -55
c0 -37 -4 -55 -12 -56 -7 0 -37 0 -67 1 l-54 2 7 -92 c4 -51 14 -117 22 -147
19 -72 17 -135 -6 -278 -11 -66 -20 -157 -20 -203 l0 -83 -51 28 c-28 15 -77
55 -108 89 -31 34 -70 69 -87 77 -53 27 -154 37 -356 36 -121 0 -211 4 -240
11 -49 13 -98 49 -98 73 0 34 28 46 169 73 133 25 147 30 183 62 l39 35 -40
17 c-59 27 -119 86 -131 129 -16 61 10 129 78 202 33 36 75 69 99 80 37 16 43
23 43 47 0 44 16 82 152 372 134 285 173 381 165 404 -3 8 -30 33 -59 56 -29
23 -61 48 -70 56 -11 8 -18 28 -18 48 0 27 -7 39 -29 55 -35 25 -30 25 -61 1z"/>
<path d="M5750 5011 c0 -10 8 -28 18 -39 14 -18 40 -23 171 -36 140 -15 202
-26 140 -26 -13 0 -87 -5 -164 -10 -101 -8 -177 -8 -270 1 -137 12 -175 25
-175 60 0 11 -4 19 -9 17 -20 -7 -281 -287 -281 -301 0 -8 6 -19 13 -24 6 -6
196 -34 422 -62 326 -41 412 -49 421 -39 14 16 154 378 154 400 0 8 -6 20 -12
25 -11 9 -359 54 -410 53 -11 0 -18 -8 -18 -19z m65 -180 c75 -27 86 -38 60
-58 -17 -13 -45 -14 -177 -9 -161 6 -208 15 -208 39 0 8 21 24 48 36 40 18 60
21 132 17 50 -2 109 -13 145 -25z"/>
<path d="M7390 2477 l0 -1435 40 -10 40 -10 0 1354 0 1354 40 0 c100 0 355
-50 540 -106 260 -79 550 -227 767 -390 l83 -63 0 32 c0 27 -15 46 -102 132
-304 297 -708 478 -1228 550 -63 8 -130 18 -147 21 l-33 5 0 -1434z"/>
</g>
</svg>
