<?xml version="1.0" standalone="no"?>
<!DOCTYPE svg PUBLIC "-//W3C//DTD SVG 20010904//EN"
 "http://www.w3.org/TR/2001/REC-SVG-20010904/DTD/svg10.dtd">
<svg version="1.0" xmlns="http://www.w3.org/2000/svg"
 width="951.000000pt" height="830.000000pt" viewBox="0 0 951.000000 830.000000"
 preserveAspectRatio="xMidYMid meet">
<metadata>
Created by potrace 1.16, written by Peter Selinger 2001-2019
</metadata>
<g transform="translate(0.000000,830.000000) scale(0.100000,-0.100000)"
fill="#000000" stroke="none">
<path d="M2099 7488 c-9 -7 -29 -32 -43 -56 -36 -58 -86 -112 -150 -161 -91
-71 -96 -118 -20 -221 45 -62 63 -73 65 -42 1 9 5 0 8 -21 l6 -38 55 78 c58
81 77 93 115 73 19 -10 28 -8 65 17 38 24 52 28 114 27 82 -1 144 -16 178 -43
19 -16 23 -30 25 -83 1 -34 3 -72 3 -83 1 -18 1 -19 11 -2 5 9 15 17 22 17 7
0 24 7 40 14 27 15 27 14 29 -17 0 -18 0 -44 -1 -59 -2 -23 2 -28 21 -28 40 0
55 21 70 95 8 39 25 104 38 146 34 111 25 156 -44 224 -106 103 -262 159 -476
171 -89 5 -119 3 -131 -8z"/>
<path d="M1837 6507 c-14 -18 -58 -55 -98 -82 -81 -54 -271 -155 -293 -155
-24 0 -117 -77 -152 -125 -51 -72 -73 -151 -85 -309 -19 -233 1 -823 34 -1005
18 -96 21 -95 241 23 56 30 72 34 82 24 6 -7 74 -128 149 -269 l137 -255 70
-55 c147 -114 268 -273 268 -351 0 -36 -24 -83 -45 -92 -66 -25 -156 25 -280
155 -62 66 -127 157 -290 411 -115 180 -213 324 -217 320 -13 -14 -49 -260
-55 -372 -8 -164 15 -210 106 -210 21 0 35 -10 60 -45 27 -37 33 -56 37 -112
21 -326 27 -401 40 -494 8 -58 30 -159 49 -224 37 -126 44 -198 21 -230 -17
-26 -33 -911 -18 -1049 8 -68 7 -102 -5 -149 -20 -89 -15 -119 22 -129 35 -10
206 -2 280 14 109 23 130 56 79 124 -27 34 -27 34 -11 87 28 88 59 348 92 762
14 178 20 212 97 527 l82 338 119 137 c66 76 135 155 154 176 l34 37 310 0
309 0 10 -22 c5 -13 50 -185 101 -383 l91 -360 -16 -52 c-10 -29 -20 -75 -23
-103 -5 -48 -5 -50 23 -61 17 -6 74 -9 139 -7 94 3 118 7 160 28 92 47 108
114 85 351 -30 294 -95 739 -121 816 -6 18 -11 58 -12 88 -2 47 -7 60 -27 76
-43 32 -231 145 -335 200 -55 29 -102 54 -104 56 -3 2 4 9 14 17 14 10 16 20
11 49 -9 46 -70 100 -140 123 -28 9 -56 21 -63 26 -16 13 -217 -276 -247 -356
-34 -89 -58 -133 -109 -201 -74 -97 -151 -135 -230 -114 -112 30 -81 142 104
371 90 112 120 157 87 131 -49 -39 -219 -160 -295 -211 l-92 -62 -25 83 c-60
199 -86 348 -86 497 0 52 13 205 30 340 62 515 83 792 70 923 -6 68 -12 84
-49 136 -22 32 -56 92 -76 132 -38 80 -64 99 -135 99 -31 0 -42 -6 -63 -33z"/>
<path d="M2424 6453 c-4 -20 -2 -226 5 -457 6 -232 11 -531 11 -665 0 -266 7
-313 60 -426 32 -68 119 -187 131 -179 4 2 38 63 76 134 64 123 70 130 98 130
67 0 157 -62 217 -150 14 -21 19 -22 27 -11 16 24 39 128 61 281 25 167 22
301 -10 499 -40 243 -150 619 -192 658 -57 52 -217 130 -391 192 l-86 30 -7
-36z"/>
<path d="M4796 6259 l-26 -31 0 -870 0 -870 29 -29 29 -29 492 0 492 0 -5 -22
c-3 -13 -11 -63 -18 -111 -10 -75 -16 -91 -37 -105 -13 -10 -39 -30 -59 -46
-64 -54 -51 -56 418 -56 230 0 424 3 433 6 27 10 18 33 -26 65 -24 17 -49 34
-56 38 -12 7 -42 156 -42 209 l0 22 475 0 c534 0 525 -1 545 68 8 26 10 297 8
890 l-3 854 -28 24 -28 24 -1284 0 -1283 0 -26 -31z m2564 -759 l0 -700 -1250
0 -1250 0 0 700 0 700 1250 0 1250 0 0 -700z"/>
<path d="M6305 4054 c-11 -3 -36 -10 -55 -15 -49 -13 -62 -23 -54 -43 16 -41
198 -97 324 -99 173 -3 201 94 40 139 -57 15 -220 27 -255 18z"/>
<path d="M4332 3968 c-12 -35 -22 -66 -22 -70 0 -5 383 -8 850 -8 l850 0 0 23
c0 13 -7 44 -16 70 l-16 47 -812 0 -811 0 -23 -62z"/>
<path d="M2220 3316 c0 -3 25 -23 57 -45 l56 -41 145 0 144 0 59 37 c33 20 62
40 65 45 3 4 -114 8 -260 8 -146 0 -266 -2 -266 -4z"/>
<path d="M7030 3266 c0 -2 28 -22 63 -45 l63 -41 145 0 144 0 58 41 c31 22 57
42 57 45 0 2 -119 4 -265 4 -146 0 -265 -2 -265 -4z"/>
<path d="M2220 2955 c0 -2 27 -22 59 -45 l60 -40 140 0 140 0 65 41 c36 23 66
43 66 45 0 2 -119 4 -265 4 -146 0 -265 -2 -265 -5z"/>
<path d="M7030 2906 c0 -2 27 -20 59 -40 l59 -36 155 0 154 0 44 31 c24 17 48
35 53 40 6 5 -105 9 -257 9 -147 0 -267 -2 -267 -4z"/>
<path d="M3595 2675 c-80 -43 -142 -151 -152 -267 l-6 -56 65 -20 c149 -46
202 -50 283 -18 22 8 64 15 93 16 45 0 58 4 83 29 31 31 38 75 18 112 -5 11
-33 30 -62 43 -49 22 -138 103 -164 150 -15 27 -115 34 -158 11z"/>
<path d="M2273 2410 l55 -40 151 0 150 0 62 40 62 40 -268 0 -268 0 56 -40z"/>
<path d="M7089 2360 l62 -40 150 0 151 0 55 40 56 40 -268 0 -268 0 62 -40z"/>
<path d="M2220 1946 c0 -3 26 -23 57 -45 l58 -41 144 0 145 0 63 41 c35 23 63
43 63 45 0 2 -119 4 -265 4 -146 0 -265 -2 -265 -4z"/>
<path d="M7030 1896 c0 -2 29 -23 65 -45 l65 -41 140 0 141 0 60 40 c32 23 59
43 59 45 0 3 -119 5 -265 5 -146 0 -265 -2 -265 -4z"/>
<path d="M1703 1270 c-13 -11 -30 -46 -39 -78 -13 -45 -28 -70 -74 -117 -97
-101 -117 -171 -61 -218 55 -46 206 -65 266 -34 39 19 59 43 78 89 12 28 28
43 66 63 61 31 86 64 78 105 -11 51 -79 189 -96 194 -9 2 -57 7 -106 11 -82 6
-92 4 -112 -15z"/>
</g>
</svg>
